<svg width="6" height="10" viewBox="0 0 6 10" fill="none" xmlns="http://www.w3.org/2000/svg">
<path fill-rule="evenodd" clip-rule="evenodd" d="M5.4958 4.9278C5.48083 4.81692 5.43366 4.71391 5.36097 4.63337L1.37834 0.189322C1.25912 0.0380298 1.07147 -0.0300629 0.890953 0.0124638C0.710439 0.0549905 0.566773 0.201137 0.517806 0.392053C0.468838 0.582969 0.522629 0.787232 0.657517 0.922589L4.31345 5L0.657517 9.07741C0.522629 9.21277 0.468838 9.41703 0.517806 9.60795C0.566773 9.79886 0.710439 9.94501 0.890953 9.98754C1.07147 10.0301 1.25912 9.96197 1.37834 9.81068L5.36097 5.36664C5.46579 5.24988 5.5154 5.08842 5.4958 4.9278Z" fill="#787878"/>
</svg>
