<svg width="21" height="21" viewBox="0 0 21 21" fill="none" xmlns="http://www.w3.org/2000/svg">
<g clip-path="url(#clip0_499_97063)">
<g clip-path="url(#clip1_499_97063)">
<ellipse cx="10.4696" cy="9.21748" rx="2.56846" ry="5.14704" transform="rotate(-20.1937 10.4696 9.21748)" fill="white"/>
<path fill-rule="evenodd" clip-rule="evenodd" d="M1.87908 10.2031C2.62471 9.75575 3.59183 9.99753 4.03921 10.7432L8.76256 18.6154C9.20994 19.361 8.96816 20.3282 8.22253 20.7755C7.4769 21.2229 6.50978 20.9811 6.0624 20.2355L1.33905 12.3633C0.891672 11.6176 1.13345 10.6505 1.87908 10.2031Z" fill="#1A94FF"/>
<path d="M11.1776 9.46678C10.9469 8.79116 10.4487 8.26715 9.77798 7.99471C9.10726 7.72227 8.31099 7.72047 7.54105 7.98964C7.60817 8.99327 7.80191 9.96409 8.11816 10.8815C8.42546 11.803 8.85338 12.6656 9.39283 13.4508C10.1118 13.0315 10.6912 12.3935 11.0204 11.6587C11.3496 10.9239 11.4055 10.1437 11.1776 9.46678Z" fill="#FFC400"/>
<path d="M8.43731 4.12695C8.24383 4.20412 8.06688 4.31864 7.91422 4.4655L0.893054 10.6925C0.499994 11.0236 0.235005 11.5041 0.142556 12.0533C0.0501076 12.6025 0.135827 13.187 0.385328 13.7088C0.558839 14.2569 0.893341 14.7397 1.33307 15.0766C1.7728 15.4134 2.29118 15.5841 2.80179 15.5601L12.2034 15.2912C12.4144 15.2937 12.6211 15.2564 12.8143 15.1807C14.3509 14.5723 14.5684 11.7377 13.3207 8.58674C12.073 5.4358 9.97392 3.51849 8.43731 4.12695ZM12.328 13.9525C11.5648 14.2547 9.98302 12.7542 9.0089 10.2941C8.03477 7.83402 8.16046 5.65735 8.92365 5.35515C9.68683 5.05295 11.2686 6.5535 12.2427 9.01358C13.2169 11.4737 13.0912 13.6503 12.328 13.9525Z" fill="#1A94FF"/>
<path d="M15.434 0.891252L15.5029 1.14809C14.0042 1.68073 13.2053 2.8648 13.556 4.17343C13.9263 5.55545 14.9396 6.00488 16.8529 5.99034L17.4985 8.39969C16.7919 8.45794 16.1529 8.32766 15.4657 8.06612C15.3325 8.01005 15.1724 8.00053 15.0253 8.03992C14.6455 8.14168 14.4302 8.514 14.5317 8.89313C14.6006 9.14997 14.7755 9.31282 15.0198 9.39155C15.9081 9.7172 16.8419 9.8209 17.787 9.67254L17.9902 10.4308C18.0688 10.7243 18.3761 10.8911 18.6701 10.8123C18.9642 10.7335 19.1347 10.4387 19.056 10.1452L18.8594 9.4114C20.376 8.84773 21.1904 7.6726 20.8299 6.32728C20.4793 5.01865 19.483 4.48599 17.4963 4.52022L16.8671 2.17202C17.3099 2.15825 17.7756 2.23009 18.2732 2.37202C18.4154 2.41258 18.5477 2.41644 18.6702 2.38361C19.05 2.28185 19.2777 1.90625 19.1761 1.52712C19.0974 1.23359 18.8767 1.0961 18.6512 1.03855C17.9926 0.834881 17.3178 0.766645 16.572 0.874716L16.4999 0.605652C16.4213 0.312127 16.1262 0.142126 15.8322 0.220912C15.5382 0.299698 15.3554 0.597727 15.434 0.891252ZM19.4072 6.80026C19.5645 7.38731 19.2406 7.89357 18.4794 8.18928L17.883 5.96338C18.905 6.00413 19.263 6.26213 19.4072 6.80026ZM14.9787 3.70046C14.8345 3.16233 15.1152 2.64145 15.8796 2.35797L16.4596 4.52272C15.4343 4.46974 15.1164 4.21413 14.9787 3.70046Z" fill="#FFC400"/>
</g>
</g>
<defs>
<clipPath id="clip0_499_97063">
<rect width="21" height="21" fill="white"/>
</clipPath>
<clipPath id="clip1_499_97063">
<rect width="21" height="21" fill="white" transform="translate(0.106812)"/>
</clipPath>
</defs>
</svg>
